# xmcd
#
# Track frame offsets:
#	150
#	14060
#	28330
#	46175
#	65977
#	88104
#	110919
#	130336
#	157608
#	180035
#	195026
#	214272
#	233937
#	252150
#	271690
#	290138
#	308453
#
# Disc length: 4325 seconds
#
# Revision: 1
# Processed by: cddbd v1.5PL3 Copyright (c) Steve Scherf et al.
# Submitted via: EasyCDDAExtractor 6.5.5.1
#
DISCID=eb10e311
DTITLE=Kenny G - Romantic Collection
DYEAR=2000
DGENRE=Other
TTITLE0=What A Wonderful World
TTITLE1=Stranger In The Shore
TTITLE2=Songbird
TTITLE3=Silhouette
TTITLE4=Forever In Love
TTITLE5=That Somebody Was You
TTITLE6=Sentimental
TTITLE7=The Moment
TTITLE8=Everytime I Close My Eyes
TTITLE9=Loving You
TTITLE10=Going Home
TTITLE11=How Could An Angel Break My Heart
TTITLE12=Theme From Dying Young
TTITLE13=By The Time The Night Is Over
TTITLE14=Don't Make Me Wait For Love
TTITLE15=You Send Me
TTITLE16=Baby G
EXTD=
EXTT0=
EXTT1=
EXTT2=
EXTT3=
EXTT4=
EXTT5=
EXTT6=
EXTT7=
EXTT8=
EXTT9=
EXTT10=
EXTT11=
EXTT12=
EXTT13=
EXTT14=
EXTT15=
EXTT16=
PLAYORDER=
